<?xml version="1.0" standalone="no"?>
<!DOCTYPE svg PUBLIC "-//W3C//DTD SVG 20010904//EN"
 "http://www.w3.org/TR/2001/REC-SVG-20010904/DTD/svg10.dtd">
<svg version="1.0" xmlns="http://www.w3.org/2000/svg"
 width="700.000000pt" height="700.000000pt" viewBox="0 0 700.000000 700.000000"
 preserveAspectRatio="xMidYMid meet">
<metadata>
Created by potrace 1.14, written by Peter Selinger 2001-2017
</metadata>
<g transform="translate(0.000000,700.000000) scale(0.100000,-0.100000)"
fill="#000000" stroke="none">
<path d="M3350 6129 c-814 -46 -1559 -533 -1931 -1261 -164 -321 -245 -638
-256 -993 -6 -206 6 -357 43 -543 51 -254 174 -563 307 -774 136 -216 173
-256 1094 -1178 l893 -895 868 870 c503 504 900 910 944 965 377 475 567 1074
519 1640 -42 495 -208 920 -505 1295 -215 270 -480 483 -801 640 -366 180
-757 258 -1175 234z m346 -1703 c111 -36 194 -88 279 -177 246 -257 246 -651
0 -907 -134 -141 -279 -204 -470 -205 -132 -1 -205 16 -320 76 -157 81 -287
248 -331 427 -24 97 -15 283 18 372 63 168 178 297 330 373 51 25 125 52 163
60 98 20 231 12 331 -19z"/>
</g>
</svg>
